<?xml version="1.0" standalone="no"?><!DOCTYPE svg PUBLIC "-//W3C//DTD SVG 1.1//EN" "http://www.w3.org/Graphics/SVG/1.1/DTD/svg11.dtd"><svg t="1710332897412" class="icon" viewBox="0 0 1024 1024" version="1.1" xmlns="http://www.w3.org/2000/svg" p-id="1505" xmlns:xlink="http://www.w3.org/1999/xlink" width="200" height="200"><path d="M751.365 153.361l254.25 237.45 0.448 633.189H253.018V907.986H86.048c-37.618 0-68.115-30.499-68.115-68.124V68.129C17.933 30.509 48.43 0.005 86.048 0.005h611.875c37.612 0 68.11 30.503 68.11 68.124v68.124l-77.962-0.07v-38.27c0-12.591-10.22-22.732-22.735-22.732l-552.458 0.072c-12.592 0-22.73 10.215-22.73 22.73V805.55c0 12.586 10.138 22.734 22.73 22.734h140.14V657.273h0.46l-0.46-504.247 498.347 0.335z m-27.694 45.504v229.204h235.327L723.671 198.865zM300.086 657.273V978.16h658.912V473.912H676.607V198.865h-376.52v458.408z m569.678-32.854h-473.24v-47.286h473.24v47.286z m0 94.6h-473.24v-47.295h473.24v47.296z m0 94.574h-473.24v-47.287h473.24v47.287z" p-id="1506" fill="#ffffff"></path></svg>