<?xml version="1.0" standalone="no"?><!DOCTYPE svg PUBLIC "-//W3C//DTD SVG 1.1//EN" "http://www.w3.org/Graphics/SVG/1.1/DTD/svg11.dtd"><svg t="1711541180184" class="icon" viewBox="0 0 1024 1024" version="1.1" xmlns="http://www.w3.org/2000/svg" p-id="11710" xmlns:xlink="http://www.w3.org/1999/xlink" width="200" height="200"><path d="M512 128c35.2 0 64 28.8 64 64v320c0 35.2-28.8 64-64 64s-64-28.8-64-64V192c0-35.2 28.8-64 64-64m0-64c-70.4 0-128 57.6-128 128v320c0 70.4 57.6 128 128 128s128-57.6 128-128V192c0-70.4-57.6-128-128-128z m320 448h-64c0 140.8-115.2 256-256 256S256 652.8 256 512h-64c0 165.6 126.4 302.4 288 318.4V960h64v-129.6c161.6-16 288-152.8 288-318.4z" p-id="11711" fill="#ffffff"></path></svg>