<svg width="118" height="86" viewBox="0 0 118 86" fill="none" xmlns="http://www.w3.org/2000/svg">
<path d="M95.0002 28.7353C90.5602 27.5206 85.6802 27 81.0002 27C73.2002 27 64.8002 28.3882 59.0002 32.2059C53.2002 28.3882 44.8002 27 37.0002 27C29.2002 27 20.8002 28.3882 15.0002 32.2059L0 79.2323C0 80.1 1 80.9676 2 80.9676C2.4 80.9676 2.6 80.7941 3 80.7941C8.4 78.5382 37.0002 80.7941 37.0002 80.7941C37.0002 80.7941 53.2002 82.1824 59.0002 86C65 82.5294 81.0002 80.9676 81.0002 80.9676C81.0002 80.9676 109.5 78.1912 114.5 80.7941C115.5 81.2279 116 81.2279 117 80.7941C117.612 80.5288 118 79.9265 118 79.2323L103 32.2059C100.6 30.6441 98.0002 29.6029 95.0002 28.7353ZM107 72.9853C102.6 71.7706 81.0002 73.8529 81.0002 73.8529C81.0002 73.8529 64.4002 76.1088 59.0002 79.0588V39.1471C64.4002 36.1971 74.2002 33.9412 81.0002 33.9412C85.8002 33.9412 90.6002 34.4618 95.0002 35.6765L107 72.9853Z" fill="#ABF6E8"/>
<path d="M78.3082 48.5912H75.8239L74.9434 47.7421C78.0252 44.1572 79.8805 39.5031 79.8805 34.4403C79.8805 23.1509 70.7296 14 59.4403 14C48.1509 14 39 23.1509 39 34.4403C39 45.7296 48.1509 54.8805 59.4403 54.8805C64.5031 54.8805 69.1572 53.0252 72.7421 49.9434L73.5912 50.8239V53.3082L89.3145 69L94 64.3145L78.3082 48.5912ZM59.4403 48.5912C51.6101 48.5912 45.2893 42.2704 45.2893 34.4403C45.2893 26.6101 51.6101 20.2893 59.4403 20.2893C67.2704 20.2893 73.5912 26.6101 73.5912 34.4403C73.5912 42.2704 67.2704 48.5912 59.4403 48.5912ZM52.6164 43.8742L59.3459 39.0629L66.0755 43.8742L63.4654 36.1384L70.2264 31.4214H61.9874L59.3459 23.434L56.7044 31.4214H48.434L55.1635 36.1069L52.6164 43.8742Z" fill="url(#paint0_linear_221_544)"/>
<path d="M59.5 7V2" stroke="#31E8C7" stroke-width="3" stroke-linecap="round"/>
<path d="M79.0001 14.5355L82.7183 11.1826" stroke="#31E8C7" stroke-width="3" stroke-linecap="round"/>
<path d="M39.7182 14.5355L36 11.1826" stroke="#31E8C7" stroke-width="3" stroke-linecap="round"/>
<path d="M87 31H92" stroke="#31E8C7" stroke-width="3" stroke-linecap="round"/>
<path d="M31 31H26" stroke="#31E8C7" stroke-width="3" stroke-linecap="round"/>
<path d="M15.128 68.008H18.92V70H11.18L15.464 62.944H11.9V60.952H19.388L15.128 68.008ZM22.0264 60.952L23.5864 66.796L25.5064 60.952H27.3784L29.2984 66.796L30.8584 60.952H33.3184L30.6184 70H28.2184L26.4424 64.756L24.6664 70H22.2664L19.5664 60.952H22.0264ZM36.6242 60.952V68.008H39.4442V70H34.2722V60.952H36.6242ZM43.0109 64.444H46.4069V60.952H48.7589V70H46.4069V66.268H43.0109V70H40.6589V60.952H43.0109V64.444Z" fill="#31E8C7"/>
<defs>
<linearGradient id="paint0_linear_221_544" x1="58" y1="29" x2="46" y2="8" gradientUnits="userSpaceOnUse">
<stop stop-color="#31E8C7"/>
<stop offset="0.779588" stop-color="white"/>
</linearGradient>
</defs>
</svg>
